<?xml version="1.0" encoding="UTF-8" standalone="no"?><!DOCTYPE svg PUBLIC "-//W3C//DTD SVG 1.1//EN" "http://www.w3.org/Graphics/SVG/1.1/DTD/svg11.dtd"><svg width="100%" height="100%" viewBox="0 0 683 683" version="1.1" xmlns="http://www.w3.org/2000/svg" xmlns:xlink="http://www.w3.org/1999/xlink" xml:space="preserve" xmlns:serif="http://www.serif.com/" style="fill-rule:evenodd;clip-rule:evenodd;stroke-linejoin:round;stroke-miterlimit:2;"><g id="Text"><g transform="matrix(1.33333,0,0,1.33333,-97.3333,6.66667)"><g transform="matrix(0.51654,0.856263,-0.856263,0.51654,354.696,76.9172)"><text x="109.233px" y="352.562px" style="font-family:'BubblegumSans-Regular', 'Bubblegum Sans';font-size:54px;">W</text></g><g transform="matrix(0.668756,0.743482,-0.743482,0.668756,339.137,29.5064)"><text x="136.455px" y="395.352px" style="font-family:'BubblegumSans-Regular', 'Bubblegum Sans';font-size:54px;">A</text></g><g transform="matrix(0.785735,0.618564,-0.618564,0.785735,297.363,-9.78664)"><text x="162.808px" y="424.336px" style="font-family:'BubblegumSans-Regular', 'Bubblegum Sans';font-size:54px;">M</text></g><g transform="matrix(0.877884,0.478873,-0.478873,0.877884,241.102,-40.64)"><text x="200.235px" y="452.416px" style="font-family:'BubblegumSans-Regular', 'Bubblegum Sans';font-size:54px;">F</text></g><g transform="matrix(0.922686,0.385552,-0.385552,0.922686,197.562,-51.6284)"><text x="227.512px" y="466.789px" style="font-family:'BubblegumSans-Regular', 'Bubblegum Sans';font-size:54px;">I</text></g><g transform="matrix(0.959953,0.280161,-0.280161,0.959953,143.002,-50.2399)"><text x="247.235px" y="475.086px" style="font-family:'BubblegumSans-Regular', 'Bubblegum Sans';font-size:54px;">S</text></g><g transform="matrix(0.991797,0.12782,-0.12782,0.991797,64.2411,-31.9232)"><text x="280.849px" y="484.569px" style="font-family:'BubblegumSans-Regular', 'Bubblegum Sans';font-size:54px;">H</text></g><g transform="matrix(0.953876,-0.3002,0.3002,0.953876,-125.486,141.379)"><text x="397.348px" y="479.057px" style="font-family:'BubblegumSans-Regular', 'Bubblegum Sans';font-size:54px;">.</text></g><g transform="matrix(0.915141,-0.403133,0.403133,0.915141,-156.506,206.304)"><text x="411.785px" y="474.903px" style="font-family:'BubblegumSans-Regular', 'Bubblegum Sans';font-size:54px;">C</text></g><g transform="matrix(0.840529,-0.541766,0.541766,0.840529,-177.966,314.815)"><text x="445.773px" y="459.707px" style="font-family:'BubblegumSans-Regular', 'Bubblegum Sans';font-size:54px;">O</text></g><g transform="matrix(0.728357,-0.685198,0.685198,0.728357,-168.023,448.4)"><text x="481.515px" y="436.113px" style="font-family:'BubblegumSans-Regular', 'Bubblegum Sans';font-size:54px;">M</text></g></g><g transform="matrix(1.33333,0,0,1.33333,-97.3333,6.66667)"><g transform="matrix(0.818321,-0.574761,0.574761,0.818321,-12.1083,134.573)"><text x="206.813px" y="86.439px" style="font-family:'BubblegumSans-Regular', 'Bubblegum Sans';font-size:54px;">&quot;</text></g><g transform="matrix(0.885393,-0.464844,0.464844,0.885393,-9.75777,111.585)"><text x="221.414px" y="75.581px" style="font-family:'BubblegumSans-Regular', 'Bubblegum Sans';font-size:54px;">C</text></g><g transform="matrix(0.931594,-0.363499,0.363499,0.931594,-5.04773,95.1534)"><text x="250.293px" y="60.988px" style="font-family:'BubblegumSans-Regular', 'Bubblegum Sans';font-size:54px;">l</text></g><g transform="matrix(0.950807,-0.309784,0.309784,0.950807,-4.79888,83.5427)"><text x="260.648px" y="56.881px" style="font-family:'BubblegumSans-Regular', 'Bubblegum Sans';font-size:54px;">i</text></g><g transform="matrix(0.972354,-0.233511,0.233511,0.972354,-4.8584,64.9516)"><text x="271.878px" y="52.994px" style="font-family:'BubblegumSans-Regular', 'Bubblegum Sans';font-size:54px;">c</text></g><g transform="matrix(0.992916,-0.118819,0.118819,0.992916,-3.62997,35.0508)"><text x="292.134px" y="47.968px" style="font-family:'BubblegumSans-Regular', 'Bubblegum Sans';font-size:54px;">k</text></g><g transform="matrix(0.999834,0.0182322,-0.0182322,0.999834,0.873045,-5.93702)"><text x="326.043px" y="44.912px" style="font-family:'BubblegumSans-Regular', 'Bubblegum Sans';font-size:54px;">t</text></g><g transform="matrix(0.994126,0.108233,-0.108233,0.994126,6.84294,-36.3828)"><text x="338.586px" y="44.847px" style="font-family:'BubblegumSans-Regular', 'Bubblegum Sans';font-size:54px;">h</text></g><g transform="matrix(0.973971,0.226671,-0.226671,0.973971,20.2374,-81.0865)"><text x="363.191px" y="47.576px" style="font-family:'BubblegumSans-Regular', 'Bubblegum Sans';font-size:54px;">e</text></g><g transform="matrix(0.916981,0.398931,-0.398931,0.916981,55.1775,-153.267)"><text x="395.835px" y="55.939px" style="font-family:'BubblegumSans-Regular', 'Bubblegum Sans';font-size:54px;">F</text></g><g transform="matrix(0.88041,0.474213,-0.474213,0.88041,81.0567,-190.23)"><text x="417.691px" y="65.593px" style="font-family:'BubblegumSans-Regular', 'Bubblegum Sans';font-size:54px;">i</text></g><g transform="matrix(0.842762,0.538286,-0.538286,0.842762,105.594,-219.336)"><text x="428.234px" y="71.077px" style="font-family:'BubblegumSans-Regular', 'Bubblegum Sans';font-size:54px;">s</text></g><g transform="matrix(0.779461,0.626451,-0.626451,0.779461,148.971,-260.547)"><text x="444.533px" y="81.305px" style="font-family:'BubblegumSans-Regular', 'Bubblegum Sans';font-size:54px;">h</text></g><g transform="matrix(0.708684,0.705526,-0.705526,0.708684,203.424,-298.889)"><text x="463.646px" y="96.888px" style="font-family:'BubblegumSans-Regular', 'Bubblegum Sans';font-size:54px;">&quot;</text></g></g></g><g id="Logo"><g id="Fish"><path d="M341.333,75.438c146.184,0 264.689,118.504 264.688,264.687c0.001,146.183 -118.504,264.687 -264.688,264.687c-146.182,0.001 -264.687,-118.504 -264.687,-264.687c-0,-146.183 118.504,-264.688 264.687,-264.688" style="fill:#41ffb1;"/><path d="M217.926,312.667c-0.365,0.724 -1.233,1.033 -1.971,0.693c-0.725,-0.34 -1.058,-1.154 -0.777,-1.902c17.616,-47.115 59.52,-89.013 118.561,-96.515c0.775,-0.103 1.495,0.406 1.661,1.173c0.165,0.777 -0.301,1.545 -1.06,1.763c-54.471,15.552 -95.295,53.34 -116.414,94.788m205.921,-42.314c9.391,-3.522 19.849,1.234 23.374,10.613c3.523,9.382 -1.233,19.834 -10.618,23.358c-9.391,3.521 -19.852,-1.23 -23.377,-10.613c-3.519,-9.383 1.236,-19.835 10.621,-23.358m-344.341,23.867c-12.626,72.239 5.251,142.756 44.354,198.371c39.106,55.604 99.444,96.311 171.747,108.928c13.434,2.345 26.803,3.642 40.028,3.934c-0.138,-6.238 -1.479,-12.412 -4.549,-18.308c-0.607,-1.173 -1.263,-2.323 -1.973,-3.447c-9.88,-0.501 -19.825,-1.605 -29.806,-3.346c-66.448,-11.596 -121.903,-49.017 -157.842,-100.117c-35.942,-51.106 -52.368,-115.922 -40.763,-182.316c11.605,-66.399 49.045,-121.805 100.197,-157.718c51.142,-35.913 116.011,-52.326 182.459,-40.731c66.449,11.596 121.905,49.007 157.84,100.114c35.944,51.111 52.373,115.918 40.767,182.317c-5.23,29.923 -15.71,57.619 -30.322,82.294c-48.965,82.693 -174.636,91.945 -245.921,41.166c12.978,3.798 22.558,2.766 32.009,0.261c0.987,-0.267 1.687,-1.046 1.834,-2.051c0.158,-1.009 -0.286,-1.966 -1.158,-2.501c-7.56,-4.696 -14.79,-12.24 -20.326,-21.006c-0.512,-0.82 -1.37,-1.248 -2.33,-1.167c-5.111,0.433 -10.072,-0.272 -14.952,-2.159c-29.901,-11.624 -37.981,-55.993 -24.796,-82.611c7.626,-15.403 22.535,-28.617 46.739,-35.694c-28.811,20.722 -7.971,42.936 -14.84,68.387c-0.256,0.934 0.008,1.855 0.718,2.502c0.7,0.65 1.641,0.845 2.544,0.511c28.024,-10.014 50.856,-29.832 44.235,-64.868c-26.327,-28.334 -22.366,-66.304 6.245,-80.046c-20.778,22.101 -17.082,49.914 -0.127,69.213c19.877,22.584 57.453,35.106 89.604,30.313c1.06,-0.162 1.87,-0.923 2.092,-1.976c0.212,-1.05 -0.233,-2.076 -1.145,-2.639c-16.579,-10.211 -24.628,-22.714 -27.311,-40.863c21.909,28.946 62.931,34.121 98.523,6.498c2.269,-1.753 3.425,-4.276 3.283,-7.144c-0.132,-2.861 -1.537,-5.266 -3.962,-6.792c-23.49,-14.832 -35.091,-44.224 -59.015,-71.345c-22.291,-25.263 -38.54,-32.55 -70.354,-42.619c-23.117,-7.316 -37.655,-19.146 -48.813,-41.218c-2.918,-5.783 -5.141,-11.949 -6.605,-18.526c-0.224,-1.028 -1.003,-1.759 -2.031,-1.929c-1.031,-0.18 -2.005,0.264 -2.558,1.146c-12.833,20.784 -31.969,24.486 -48.452,12.986c-0.705,-0.498 -1.54,-0.594 -2.334,-0.283c-0.806,0.31 -1.351,0.935 -1.544,1.774c-4.283,18.545 -21.854,25.598 -38.814,21.219c-0.877,-0.231 -1.732,0.003 -2.38,0.631c-0.649,0.624 -0.89,1.473 -0.692,2.352c4.878,21.469 -11.984,32.36 -25.783,33.345c-0.808,0.062 -1.478,0.452 -1.923,1.133c-0.445,0.671 -0.532,1.44 -0.267,2.206c6.648,18.725 -7.119,33.496 -18.779,36.863c-0.806,0.222 -1.394,0.772 -1.671,1.556c-0.283,0.786 -0.173,1.581 0.3,2.259c9.15,13.301 6.616,28.37 -6.828,36.309c-0.687,0.398 -1.096,1.016 -1.208,1.804c-0.119,0.771 0.114,1.486 0.648,2.071c10.879,11.573 12.15,27.223 2.986,37.519c-0.481,0.528 -0.689,1.185 -0.622,1.896c0.067,0.711 0.393,1.306 0.953,1.752c7.596,5.887 14,15.534 13.253,26.602c-3.891,57.547 32.293,102.469 76.628,136.578c46.206,35.568 100.199,60.076 63.803,135.706c-0.356,0.746 -0.276,1.574 0.218,2.235c0.5,0.651 1.259,0.815 2.08,0.823c42.286,0.212 64.261,-31.973 71.627,-61.067c28.662,-8.21 55.591,-21.17 79.715,-38.101c55.653,-39.079 96.395,-99.368 109.021,-171.606c12.628,-72.247 -5.252,-142.765 -44.355,-198.369c-39.105,-55.612 -99.448,-96.32 -171.747,-108.936c-72.302,-12.616 -142.882,5.244 -198.531,44.321c-55.654,39.069 -96.393,99.358 -109.021,171.604m342.905,-3.953c1.619,4.312 6.425,6.494 10.749,4.887c1.581,-0.596 2.881,-1.626 3.807,-2.894c-2.861,-0.268 -5.458,-2.133 -6.538,-4.996c-1.077,-2.873 -0.342,-5.98 1.639,-8.06c-1.538,-0.352 -3.187,-0.269 -4.776,0.327c-4.319,1.615 -6.504,6.423 -4.881,10.736" style="fill:#003f74;"/></g><g id="Icon.afdesign"></g></g></svg>