<?xml version="1.0" encoding="UTF-8" standalone="no"?>
<svg
   width="1024"
   height="1024"
   viewBox="0 0 8192 8192"
   version="1.1"
   xml:space="preserve"
   style="clip-rule:evenodd;fill-rule:evenodd;stroke-linejoin:round;stroke-miterlimit:2"
   id="svg11"
   sodipodi:docname="Wamfish1024.svg"
   inkscape:version="1.2 (dc2aedaf03, 2022-05-15)"
   xmlns:inkscape="http://www.inkscape.org/namespaces/inkscape"
   xmlns:sodipodi="http://sodipodi.sourceforge.net/DTD/sodipodi-0.dtd"
   xmlns="http://www.w3.org/2000/svg"
   xmlns:svg="http://www.w3.org/2000/svg"><defs
   id="defs15" /><sodipodi:namedview
   id="namedview13"
   pagecolor="#ffffff"
   bordercolor="#000000"
   borderopacity="0.25"
   inkscape:showpageshadow="2"
   inkscape:pageopacity="0.0"
   inkscape:pagecheckerboard="0"
   inkscape:deskcolor="#d1d1d1"
   showgrid="false"
   inkscape:zoom="0.84375"
   inkscape:cx="511.40741"
   inkscape:cy="512"
   inkscape:window-width="1920"
   inkscape:window-height="1051"
   inkscape:window-x="1920"
   inkscape:window-y="0"
   inkscape:window-maximized="1"
   inkscape:current-layer="svg11" />
    <g
   id="Fish"
   transform="matrix(10.444715,0,0,9.56708,2196.0156,4711.4022)">
        <g
   transform="matrix(-0.995205,0,0,0.995205,-174.872,50.7947)"
   id="g4">
            <path
   d="m -358.696,-543.973 c -215.529,10e-4 -390.249,174.72 -390.248,390.248 -0.001,215.528 174.719,390.248 390.248,390.248 215.527,0.001 390.248,-174.72 390.248,-390.248 0,-215.528 -174.72,-390.248 -390.248,-390.248"
   style="fill:#41ffb1"
   id="path2" />
        </g>
        <g
   transform="matrix(0.996882,0,0,0.996078,1.02771,-0.255705)"
   id="g8">
            <path
   d="m 0,-142.786 c -0.537,1.066 -1.814,1.521 -2.901,1.02 -1.066,-0.5 -1.557,-1.7 -1.143,-2.802 25.929,-69.403 87.607,-131.122 174.509,-142.174 1.141,-0.151 2.2,0.599 2.445,1.728 0.243,1.145 -0.443,2.276 -1.56,2.597 C 91.174,-259.507 31.086,-203.843 0,-142.786 m 303.094,-62.332 c 13.823,-5.189 29.215,1.818 34.404,15.633 5.185,13.821 -1.815,29.218 -15.629,34.408 -13.822,5.187 -29.219,-1.812 -34.408,-15.633 -5.18,-13.822 1.819,-29.218 15.633,-34.408 m -506.832,35.158 c -18.585,106.413 7.728,210.291 65.284,292.216 57.56,81.909 146.371,141.874 252.792,160.459 19.774,3.454 39.451,5.365 58.917,5.796 -0.203,-9.19 -2.177,-18.285 -6.695,-26.97 -0.893,-1.727 -1.859,-3.422 -2.904,-5.077 -14.543,-0.739 -29.18,-2.365 -43.872,-4.93 -97.804,-17.081 -179.427,-72.205 -232.325,-147.48 -52.903,-75.283 -77.081,-170.762 -60,-268.566 17.082,-97.81 72.189,-179.428 147.479,-232.331 75.276,-52.902 170.756,-77.08 268.56,-59.999 97.806,17.081 179.432,72.19 232.324,147.475 52.905,75.291 77.087,170.757 60.005,268.568 -7.699,44.078 -23.124,84.877 -44.631,121.225 -72.071,121.813 -257.046,135.442 -361.969,60.641 19.102,5.595 33.202,4.075 47.114,0.385 1.453,-0.394 2.482,-1.542 2.699,-3.022 0.232,-1.486 -0.421,-2.896 -1.704,-3.684 -11.128,-6.918 -21.77,-18.031 -29.918,-30.943 -0.753,-1.208 -2.017,-1.839 -3.429,-1.72 -7.523,0.638 -14.826,-0.4 -22.008,-3.18 C 77.969,81.78 66.077,16.421 85.483,-22.79 c 11.225,-22.69 33.17,-42.155 68.795,-52.58 -42.407,30.525 -11.732,63.248 -21.842,100.74 -0.378,1.376 0.011,2.733 1.057,3.686 1.03,0.957 2.414,1.245 3.744,0.753 41.248,-14.752 74.855,-43.946 65.109,-95.556 -38.751,-41.739 -32.92,-97.671 9.192,-117.914 -30.583,32.556 -25.143,73.527 -0.187,101.955 29.256,33.268 84.564,51.715 131.888,44.654 1.559,-0.238 2.751,-1.359 3.078,-2.91 0.313,-1.548 -0.343,-3.059 -1.685,-3.888 -24.402,-15.042 -36.25,-33.46 -40.198,-60.194 32.247,42.639 92.627,50.262 145.015,9.571 3.339,-2.582 5.04,-6.298 4.832,-10.523 -0.195,-4.214 -2.262,-7.757 -5.832,-10.005 -34.574,-21.849 -51.65,-65.146 -86.864,-105.097 -32.809,-37.215 -56.727,-47.949 -103.553,-62.782 -34.025,-10.776 -55.424,-28.203 -71.847,-60.717 -4.295,-8.518 -7.568,-17.602 -9.722,-27.29 -0.33,-1.514 -1.477,-2.591 -2.99,-2.841 -1.517,-0.265 -2.951,0.388 -3.765,1.688 -18.889,30.616 -47.054,36.069 -71.316,19.129 -1.038,-0.734 -2.266,-0.875 -3.435,-0.417 -1.186,0.457 -1.989,1.377 -2.273,2.614 -6.304,27.317 -32.166,37.707 -57.13,31.257 -1.291,-0.341 -2.549,0.004 -3.503,0.929 -0.955,0.92 -1.31,2.17 -1.018,3.465 7.179,31.625 -17.639,47.668 -37.95,49.12 -1.19,0.091 -2.175,0.666 -2.831,1.669 -0.654,0.988 -0.783,2.121 -0.393,3.25 9.785,27.583 -10.478,49.341 -27.64,54.301 -1.186,0.327 -2.052,1.137 -2.46,2.293 -0.416,1.157 -0.254,2.329 0.441,3.327 13.468,19.594 9.738,41.792 -10.05,53.486 -1.01,0.587 -1.612,1.497 -1.777,2.658 -0.176,1.136 0.167,2.188 0.954,3.051 16.012,17.047 17.883,40.101 4.394,55.268 -0.708,0.777 -1.014,1.745 -0.915,2.793 0.098,1.047 0.579,1.924 1.403,2.58 11.18,8.673 20.606,22.884 19.507,39.187 -5.727,84.772 47.532,150.946 112.788,201.19 68.01,52.395 147.481,88.497 93.911,199.907 -0.524,1.099 -0.406,2.318 0.321,3.291 0.736,0.96 1.853,1.201 3.061,1.213 62.241,0.313 94.585,-47.099 105.427,-89.956 42.188,-12.094 81.824,-31.186 117.332,-56.126 81.915,-57.567 141.883,-146.377 160.467,-252.79 18.587,-106.425 -7.73,-210.303 -65.285,-292.212 -57.559,-81.922 -146.377,-141.887 -252.793,-160.472 -106.421,-18.585 -210.307,7.725 -292.217,65.289 -81.916,57.551 -141.88,146.361 -160.466,252.786 m 504.719,-5.824 c 2.382,6.352 9.456,9.567 15.82,7.2 2.327,-0.879 4.241,-2.396 5.604,-4.263 -4.211,-0.396 -8.033,-3.143 -9.623,-7.36 -1.585,-4.233 -0.503,-8.809 2.413,-11.873 -2.264,-0.518 -4.692,-0.396 -7.03,0.481 -6.357,2.38 -9.573,9.462 -7.184,15.815"
   style="fill:#003f74"
   id="path6" />
        </g>
    </g>
</svg>
